<?xml version="1.0" encoding="utf-8"?>
<!-- Generator: Adobe Illustrator 19.0.0, SVG Export Plug-In . SVG Version: 6.00 Build 0)  -->
<svg version="1.1" id="Camada_1" xmlns="http://www.w3.org/2000/svg" xmlns:xlink="http://www.w3.org/1999/xlink" x="0px" y="0px"
	 viewBox="0 0 900 700" style="enable-background:new 0 0 900 700;" xml:space="preserve">
<style type="text/css">
	.st0{fill:none;}
	.st1{fill:none;stroke:#1D1D1B;stroke-width:0.72;}
	.st2{fill:#90DCFF;}
	.st3{fill:url(#XMLID_4_);}
</style>
<pattern  width="72" height="72" patternUnits="userSpaceOnUse" id="_x31_0_lpp_10_x25_" viewBox="72.3 -72 72 72" style="overflow:visible;">
	<g>
		<polygon class="st0" points="72.3,-72 144.3,-72 144.3,0 72.3,0 		"/>
		<g>
			<line class="st1" x1="144" y1="-3.6" x2="216.5" y2="-3.6"/>
			<line class="st1" x1="144" y1="-18" x2="216.5" y2="-18"/>
			<line class="st1" x1="144" y1="-32.4" x2="216.5" y2="-32.4"/>
			<line class="st1" x1="144" y1="-46.8" x2="216.5" y2="-46.8"/>
			<line class="st1" x1="144" y1="-61.2" x2="216.5" y2="-61.2"/>
			<line class="st1" x1="144" y1="-10.8" x2="216.5" y2="-10.8"/>
			<line class="st1" x1="144" y1="-25.2" x2="216.5" y2="-25.2"/>
			<line class="st1" x1="144" y1="-39.6" x2="216.5" y2="-39.6"/>
			<line class="st1" x1="144" y1="-54" x2="216.5" y2="-54"/>
			<line class="st1" x1="144" y1="-68.4" x2="216.5" y2="-68.4"/>
		</g>
		<g>
			<line class="st1" x1="72" y1="-3.6" x2="144.5" y2="-3.6"/>
			<line class="st1" x1="72" y1="-18" x2="144.5" y2="-18"/>
			<line class="st1" x1="72" y1="-32.4" x2="144.5" y2="-32.4"/>
			<line class="st1" x1="72" y1="-46.8" x2="144.5" y2="-46.8"/>
			<line class="st1" x1="72" y1="-61.2" x2="144.5" y2="-61.2"/>
			<line class="st1" x1="72" y1="-10.8" x2="144.5" y2="-10.8"/>
			<line class="st1" x1="72" y1="-25.2" x2="144.5" y2="-25.2"/>
			<line class="st1" x1="72" y1="-39.6" x2="144.5" y2="-39.6"/>
			<line class="st1" x1="72" y1="-54" x2="144.5" y2="-54"/>
			<line class="st1" x1="72" y1="-68.4" x2="144.5" y2="-68.4"/>
		</g>
		<g>
			<line class="st1" x1="0" y1="-3.6" x2="72.5" y2="-3.6"/>
			<line class="st1" x1="0" y1="-18" x2="72.5" y2="-18"/>
			<line class="st1" x1="0" y1="-32.4" x2="72.5" y2="-32.4"/>
			<line class="st1" x1="0" y1="-46.8" x2="72.5" y2="-46.8"/>
			<line class="st1" x1="0" y1="-61.2" x2="72.5" y2="-61.2"/>
			<line class="st1" x1="0" y1="-10.8" x2="72.5" y2="-10.8"/>
			<line class="st1" x1="0" y1="-25.2" x2="72.5" y2="-25.2"/>
			<line class="st1" x1="0" y1="-39.6" x2="72.5" y2="-39.6"/>
			<line class="st1" x1="0" y1="-54" x2="72.5" y2="-54"/>
			<line class="st1" x1="0" y1="-68.4" x2="72.5" y2="-68.4"/>
		</g>
	</g>
</pattern>
<g>
	<rect id="XMLID_2_" x="-87" y="-8" class="st2" width="1074" height="716"/>
	
		<pattern  id="XMLID_4_" xlink:href="#_x31_0_lpp_10_x25_" patternTransform="matrix(1.4142 -1.4142 1.4142 1.4142 14116.6035 -7780.7007)">
	</pattern>
	<rect id="XMLID_1_" x="-87" y="-8" class="st3" width="1074" height="716"/>
</g>
</svg>
