<?xml version="1.0" encoding="utf-8"?>
<!-- Generator: Adobe Illustrator 19.0.0, SVG Export Plug-In . SVG Version: 6.00 Build 0)  -->
<svg version="1.1" id="Layer_1" xmlns="http://www.w3.org/2000/svg" xmlns:xlink="http://www.w3.org/1999/xlink" x="0px" y="0px"
	 viewBox="-276 451.5 288 288" style="enable-background:new -276 451.5 288 288;" xml:space="preserve">
<style type="text/css">
	.st0{fill:#D6D6D6;}
</style>
<g>
	<g>
		<circle class="st0" cx="139.4" cy="455.1" r="0"/>
	</g>
	<g>
		<circle class="st0" cx="122.9" cy="455.1" r="0.1"/>
	</g>
	<g>
		<circle class="st0" cx="106.4" cy="455.1" r="0.2"/>
	</g>
	<g>
		<path class="st0" d="M89.8,455.3c-0.2,0-0.3-0.1-0.3-0.3c0-0.2,0.1-0.3,0.3-0.3c0.1,0,0.3,0.1,0.3,0.3
			C90.1,455.2,90,455.3,89.8,455.3z"/>
	</g>
	<g>
		<circle class="st0" cx="73.3" cy="455.1" r="0.3"/>
	</g>
	<g>
		<circle class="st0" cx="56.8" cy="455.1" r="0.4"/>
	</g>
	<g>
		<path class="st0" d="M40.3,455.6c-0.3,0-0.5-0.2-0.5-0.5c0-0.3,0.2-0.5,0.5-0.5s0.5,0.2,0.5,0.5C40.8,455.3,40.5,455.6,40.3,455.6
			z"/>
	</g>
	<g>
		<circle class="st0" cx="23.7" cy="455.1" r="0.6"/>
	</g>
	<g>
		<circle class="st0" cx="7.2" cy="455.1" r="0.7"/>
	</g>
	<g>
		<circle class="st0" cx="-9.3" cy="455.1" r="0.9"/>
	</g>
	<g>
		<circle class="st0" cx="-25.8" cy="455.1" r="1.1"/>
	</g>
	<g>
		<path class="st0" d="M-42.3,456.3c-0.7,0-1.2-0.6-1.2-1.2c0-0.7,0.6-1.2,1.2-1.2c0.7,0,1.2,0.6,1.2,1.2S-41.7,456.3-42.3,456.3z"
			/>
	</g>
	<g>
		<circle class="st0" cx="-58.9" cy="455.1" r="1.4"/>
	</g>
	<g>
		<circle class="st0" cx="-75.4" cy="455.1" r="1.6"/>
	</g>
	<g>
		<circle class="st0" cx="-91.9" cy="455.1" r="1.9"/>
	</g>
	<g>
		<circle class="st0" cx="-108.4" cy="455.1" r="2.1"/>
	</g>
	<g>
		<circle class="st0" cx="-125" cy="455.1" r="2.3"/>
	</g>
	<g>
		<circle class="st0" cx="-141.5" cy="455.1" r="2.6"/>
	</g>
	<g>
		<circle class="st0" cx="-158" cy="455.1" r="2.9"/>
	</g>
	<g>
		<circle class="st0" cx="-174.5" cy="455.1" r="3.2"/>
	</g>
	<g>
		<circle class="st0" cx="-191.1" cy="455.1" r="3.5"/>
	</g>
	<g>
		<circle class="st0" cx="-207.6" cy="455.1" r="3.9"/>
	</g>
	<g>
		<path class="st0" d="M-224.1,459.3c-2.3,0-4.2-1.9-4.2-4.2c0-2.3,1.9-4.2,4.2-4.2c2.3,0,4.2,1.9,4.2,4.2
			C-219.9,457.4-221.8,459.3-224.1,459.3z"/>
	</g>
	<g>
		<circle class="st0" cx="-240.6" cy="455.1" r="4.5"/>
	</g>
	<g>
		<circle class="st0" cx="-257.1" cy="455.1" r="4.8"/>
	</g>
	<g>
		<circle class="st0" cx="-273.7" cy="455.1" r="5.1"/>
	</g>
	<g>
		<path class="st0" d="M147.7,471.6C147.6,471.6,147.6,471.6,147.7,471.6C147.6,471.6,147.6,471.5,147.7,471.6
			C147.7,471.5,147.7,471.6,147.7,471.6L147.7,471.6z"/>
	</g>
	<g>
		<path class="st0" d="M131.1,471.7C131.1,471.7,131.1,471.6,131.1,471.7c-0.1-0.1-0.1-0.2,0-0.2S131.2,471.5,131.1,471.7
			C131.2,471.6,131.2,471.7,131.1,471.7z"/>
	</g>
	<g>
		<circle class="st0" cx="114.6" cy="471.6" r="0.2"/>
	</g>
	<g>
		<circle class="st0" cx="98.1" cy="471.6" r="0.3"/>
	</g>
	<g>
		<path class="st0" d="M81.6,471.9c-0.2,0-0.3-0.1-0.3-0.3c0-0.2,0.1-0.3,0.3-0.3c0.2,0,0.3,0.1,0.3,0.3
			C81.9,471.8,81.8,471.9,81.6,471.9z"/>
	</g>
	<g>
		<circle class="st0" cx="65.1" cy="471.6" r="0.4"/>
	</g>
	<g>
		<circle class="st0" cx="48.5" cy="471.6" r="0.5"/>
	</g>
	<g>
		<circle class="st0" cx="32" cy="471.6" r="0.6"/>
	</g>
	<g>
		<circle class="st0" cx="15.5" cy="471.6" r="0.7"/>
	</g>
	<g>
		<path class="st0" d="M-1,472.5c-0.5,0-0.9-0.4-0.9-0.9s0.4-0.9,0.9-0.9s0.9,0.4,0.9,0.9S-0.5,472.5-1,472.5z"/>
	</g>
	<g>
		<circle class="st0" cx="-17.6" cy="471.6" r="1.1"/>
	</g>
	<g>
		<circle class="st0" cx="-34.1" cy="471.6" r="1.2"/>
	</g>
	<g>
		<circle class="st0" cx="-50.6" cy="471.6" r="1.4"/>
	</g>
	<g>
		<circle class="st0" cx="-67.1" cy="471.6" r="1.6"/>
	</g>
	<g>
		<circle class="st0" cx="-83.7" cy="471.6" r="1.9"/>
	</g>
	<g>
		<circle class="st0" cx="-100.2" cy="471.6" r="2.1"/>
	</g>
	<g>
		<circle class="st0" cx="-116.7" cy="471.6" r="2.3"/>
	</g>
	<g>
		<circle class="st0" cx="-133.2" cy="471.6" r="2.6"/>
	</g>
	<g>
		<circle class="st0" cx="-149.7" cy="471.6" r="2.9"/>
	</g>
	<g>
		<circle class="st0" cx="-166.3" cy="471.6" r="3.2"/>
	</g>
	<g>
		<circle class="st0" cx="-182.8" cy="471.6" r="3.5"/>
	</g>
	<g>
		<circle class="st0" cx="-199.3" cy="471.6" r="3.9"/>
	</g>
	<g>
		<circle class="st0" cx="-215.8" cy="471.6" r="4.2"/>
	</g>
	<g>
		<circle class="st0" cx="-232.4" cy="471.6" r="4.5"/>
	</g>
	<g>
		<circle class="st0" cx="-248.9" cy="471.6" r="4.8"/>
	</g>
	<g>
		<circle class="st0" cx="-265.4" cy="471.6" r="5.1"/>
	</g>
	<g>
		<circle class="st0" cx="139.4" cy="488.1" r="0"/>
	</g>
	<g>
		<circle class="st0" cx="122.9" cy="488.1" r="0.1"/>
	</g>
	<g>
		<circle class="st0" cx="106.4" cy="488.1" r="0.2"/>
	</g>
	<g>
		<path class="st0" d="M89.8,488.4c-0.2,0-0.3-0.1-0.3-0.3c0-0.2,0.1-0.3,0.3-0.3c0.1,0,0.3,0.1,0.3,0.3
			C90.1,488.3,90,488.4,89.8,488.4z"/>
	</g>
	<g>
		<circle class="st0" cx="73.3" cy="488.1" r="0.3"/>
	</g>
	<g>
		<circle class="st0" cx="56.8" cy="488.1" r="0.4"/>
	</g>
	<g>
		<path class="st0" d="M40.3,488.6c-0.3,0-0.5-0.2-0.5-0.5c0-0.3,0.2-0.5,0.5-0.5s0.5,0.2,0.5,0.5C40.8,488.4,40.5,488.6,40.3,488.6
			z"/>
	</g>
	<g>
		<circle class="st0" cx="23.7" cy="488.1" r="0.6"/>
	</g>
	<g>
		<circle class="st0" cx="7.2" cy="488.1" r="0.7"/>
	</g>
	<g>
		<circle class="st0" cx="-9.3" cy="488.1" r="0.9"/>
	</g>
	<g>
		<circle class="st0" cx="-25.8" cy="488.1" r="1.1"/>
	</g>
	<g>
		<path class="st0" d="M-42.3,489.3c-0.7,0-1.2-0.6-1.2-1.2c0-0.7,0.6-1.2,1.2-1.2c0.7,0,1.2,0.6,1.2,1.2
			C-41.1,488.8-41.7,489.3-42.3,489.3z"/>
	</g>
	<g>
		<circle class="st0" cx="-58.9" cy="488.1" r="1.4"/>
	</g>
	<g>
		<circle class="st0" cx="-75.4" cy="488.1" r="1.6"/>
	</g>
	<g>
		<circle class="st0" cx="-91.9" cy="488.1" r="1.9"/>
	</g>
	<g>
		<circle class="st0" cx="-108.4" cy="488.1" r="2.1"/>
	</g>
	<g>
		<circle class="st0" cx="-125" cy="488.1" r="2.3"/>
	</g>
	<g>
		<circle class="st0" cx="-141.5" cy="488.1" r="2.6"/>
	</g>
	<g>
		<circle class="st0" cx="-158" cy="488.1" r="2.9"/>
	</g>
	<g>
		<circle class="st0" cx="-174.5" cy="488.1" r="3.2"/>
	</g>
	<g>
		<circle class="st0" cx="-191.1" cy="488.1" r="3.5"/>
	</g>
	<g>
		<circle class="st0" cx="-207.6" cy="488.1" r="3.9"/>
	</g>
	<g>
		<path class="st0" d="M-224.1,492.3c-2.3,0-4.2-1.9-4.2-4.2c0-2.3,1.9-4.2,4.2-4.2c2.3,0,4.2,1.9,4.2,4.2
			C-219.9,490.4-221.8,492.3-224.1,492.3z"/>
	</g>
	<g>
		<circle class="st0" cx="-240.6" cy="488.1" r="4.5"/>
	</g>
	<g>
		<circle class="st0" cx="-257.1" cy="488.1" r="4.8"/>
	</g>
	<g>
		<circle class="st0" cx="-273.7" cy="488.1" r="5.1"/>
	</g>
	<g>
		<path class="st0" d="M147.7,504.7C147.6,504.7,147.6,504.6,147.7,504.7C147.6,504.6,147.6,504.6,147.7,504.7
			C147.7,504.6,147.7,504.6,147.7,504.7C147.7,504.6,147.7,504.7,147.7,504.7z"/>
	</g>
	<g>
		<path class="st0" d="M131.1,504.7L131.1,504.7c-0.1-0.1-0.1-0.2,0-0.2S131.2,504.6,131.1,504.7
			C131.2,504.7,131.2,504.7,131.1,504.7z"/>
	</g>
	<g>
		<circle class="st0" cx="114.6" cy="504.6" r="0.2"/>
	</g>
	<g>
		<circle class="st0" cx="98.1" cy="504.6" r="0.3"/>
	</g>
	<g>
		<path class="st0" d="M81.6,504.9c-0.2,0-0.3-0.1-0.3-0.3c0-0.2,0.1-0.3,0.3-0.3c0.2,0,0.3,0.1,0.3,0.3
			C81.9,504.8,81.8,504.9,81.6,504.9z"/>
	</g>
	<g>
		<circle class="st0" cx="65.1" cy="504.6" r="0.4"/>
	</g>
	<g>
		<circle class="st0" cx="48.5" cy="504.6" r="0.5"/>
	</g>
	<g>
		<circle class="st0" cx="32" cy="504.6" r="0.6"/>
	</g>
	<g>
		<circle class="st0" cx="15.5" cy="504.6" r="0.7"/>
	</g>
	<g>
		<circle class="st0" cx="-1" cy="504.6" r="0.9"/>
	</g>
	<g>
		<circle class="st0" cx="-17.6" cy="504.6" r="1.1"/>
	</g>
	<g>
		<circle class="st0" cx="-34.1" cy="504.6" r="1.2"/>
	</g>
	<g>
		<circle class="st0" cx="-50.6" cy="504.6" r="1.4"/>
	</g>
	<g>
		<circle class="st0" cx="-67.1" cy="504.6" r="1.6"/>
	</g>
	<g>
		<circle class="st0" cx="-83.7" cy="504.6" r="1.9"/>
	</g>
	<g>
		<circle class="st0" cx="-100.2" cy="504.6" r="2.1"/>
	</g>
	<g>
		<circle class="st0" cx="-116.7" cy="504.6" r="2.3"/>
	</g>
	<g>
		<circle class="st0" cx="-133.2" cy="504.6" r="2.6"/>
	</g>
	<g>
		<circle class="st0" cx="-149.7" cy="504.6" r="2.9"/>
	</g>
	<g>
		<circle class="st0" cx="-166.3" cy="504.6" r="3.2"/>
	</g>
	<g>
		<circle class="st0" cx="-182.8" cy="504.6" r="3.5"/>
	</g>
	<g>
		<circle class="st0" cx="-199.3" cy="504.6" r="3.9"/>
	</g>
	<g>
		<circle class="st0" cx="-215.8" cy="504.6" r="4.2"/>
	</g>
	<g>
		<circle class="st0" cx="-232.4" cy="504.6" r="4.5"/>
	</g>
	<g>
		<circle class="st0" cx="-248.9" cy="504.6" r="4.8"/>
	</g>
	<g>
		<circle class="st0" cx="-265.4" cy="504.6" r="5.1"/>
	</g>
	<g>
		<circle class="st0" cx="139.4" cy="521.1" r="0"/>
	</g>
	<g>
		<circle class="st0" cx="122.9" cy="521.1" r="0.1"/>
	</g>
	<g>
		<circle class="st0" cx="106.4" cy="521.1" r="0.2"/>
	</g>
	<g>
		<path class="st0" d="M89.8,521.4c-0.2,0-0.3-0.1-0.3-0.3c0-0.2,0.1-0.3,0.3-0.3c0.1,0,0.3,0.1,0.3,0.3
			C90.1,521.3,90,521.4,89.8,521.4z"/>
	</g>
	<g>
		<circle class="st0" cx="73.3" cy="521.1" r="0.3"/>
	</g>
	<g>
		<circle class="st0" cx="56.8" cy="521.1" r="0.4"/>
	</g>
	<g>
		<path class="st0" d="M40.3,521.7c-0.3,0-0.5-0.2-0.5-0.5s0.2-0.5,0.5-0.5s0.5,0.2,0.5,0.5C40.8,521.4,40.5,521.7,40.3,521.7z"/>
	</g>
	<g>
		<circle class="st0" cx="23.7" cy="521.1" r="0.6"/>
	</g>
	<g>
		<circle class="st0" cx="7.2" cy="521.1" r="0.7"/>
	</g>
	<g>
		<circle class="st0" cx="-9.3" cy="521.1" r="0.9"/>
	</g>
	<g>
		<circle class="st0" cx="-25.8" cy="521.1" r="1.1"/>
	</g>
	<g>
		<path class="st0" d="M-42.3,522.4c-0.7,0-1.2-0.6-1.2-1.2c0-0.7,0.6-1.2,1.2-1.2c0.7,0,1.2,0.6,1.2,1.2S-41.7,522.4-42.3,522.4z"
			/>
	</g>
	<g>
		<circle class="st0" cx="-58.9" cy="521.1" r="1.4"/>
	</g>
	<g>
		<circle class="st0" cx="-75.4" cy="521.1" r="1.6"/>
	</g>
	<g>
		<circle class="st0" cx="-91.9" cy="521.1" r="1.9"/>
	</g>
	<g>
		<circle class="st0" cx="-108.4" cy="521.1" r="2.1"/>
	</g>
	<g>
		<circle class="st0" cx="-125" cy="521.1" r="2.3"/>
	</g>
	<g>
		<circle class="st0" cx="-141.5" cy="521.1" r="2.6"/>
	</g>
	<g>
		<circle class="st0" cx="-158" cy="521.1" r="2.9"/>
	</g>
	<g>
		<circle class="st0" cx="-174.5" cy="521.1" r="3.2"/>
	</g>
	<g>
		<circle class="st0" cx="-191.1" cy="521.1" r="3.5"/>
	</g>
	<g>
		<circle class="st0" cx="-207.6" cy="521.1" r="3.9"/>
	</g>
	<g>
		<path class="st0" d="M-224.1,525.4c-2.3,0-4.2-1.9-4.2-4.2s1.9-4.2,4.2-4.2c2.3,0,4.2,1.9,4.2,4.2S-221.8,525.4-224.1,525.4z"/>
	</g>
	<g>
		<circle class="st0" cx="-240.6" cy="521.1" r="4.5"/>
	</g>
	<g>
		<circle class="st0" cx="-257.1" cy="521.1" r="4.8"/>
	</g>
	<g>
		<circle class="st0" cx="-273.7" cy="521.1" r="5.1"/>
	</g>
	<g>
		<path class="st0" d="M147.7,537.7C147.6,537.7,147.6,537.7,147.7,537.7C147.6,537.6,147.6,537.6,147.7,537.7
			C147.7,537.6,147.7,537.6,147.7,537.7L147.7,537.7z"/>
	</g>
	<g>
		<path class="st0" d="M131.1,537.8C131.1,537.8,131.1,537.7,131.1,537.8c-0.1-0.1-0.1-0.2,0-0.2S131.2,537.6,131.1,537.8
			C131.2,537.7,131.2,537.8,131.1,537.8z"/>
	</g>
	<g>
		<circle class="st0" cx="114.6" cy="537.7" r="0.2"/>
	</g>
	<g>
		<circle class="st0" cx="98.1" cy="537.7" r="0.3"/>
	</g>
	<g>
		<path class="st0" d="M81.6,538c-0.2,0-0.3-0.1-0.3-0.3s0.1-0.3,0.3-0.3c0.2,0,0.3,0.1,0.3,0.3C81.9,537.8,81.8,538,81.6,538z"/>
	</g>
	<g>
		<circle class="st0" cx="65.1" cy="537.7" r="0.4"/>
	</g>
	<g>
		<circle class="st0" cx="48.5" cy="537.7" r="0.5"/>
	</g>
	<g>
		<circle class="st0" cx="32" cy="537.7" r="0.6"/>
	</g>
	<g>
		<circle class="st0" cx="15.5" cy="537.7" r="0.7"/>
	</g>
	<g>
		<path class="st0" d="M-1,538.6c-0.5,0-0.9-0.4-0.9-0.9s0.4-0.9,0.9-0.9s0.9,0.4,0.9,0.9S-0.5,538.6-1,538.6z"/>
	</g>
	<g>
		<circle class="st0" cx="-17.6" cy="537.7" r="1.1"/>
	</g>
	<g>
		<circle class="st0" cx="-34.1" cy="537.7" r="1.2"/>
	</g>
	<g>
		<circle class="st0" cx="-50.6" cy="537.7" r="1.4"/>
	</g>
	<g>
		<circle class="st0" cx="-67.1" cy="537.7" r="1.6"/>
	</g>
	<g>
		<circle class="st0" cx="-83.7" cy="537.7" r="1.9"/>
	</g>
	<g>
		<circle class="st0" cx="-100.2" cy="537.7" r="2.1"/>
	</g>
	<g>
		<circle class="st0" cx="-116.7" cy="537.7" r="2.3"/>
	</g>
	<g>
		<circle class="st0" cx="-133.2" cy="537.7" r="2.6"/>
	</g>
	<g>
		<circle class="st0" cx="-149.7" cy="537.7" r="2.9"/>
	</g>
	<g>
		<circle class="st0" cx="-166.3" cy="537.7" r="3.2"/>
	</g>
	<g>
		<circle class="st0" cx="-182.8" cy="537.7" r="3.5"/>
	</g>
	<g>
		<circle class="st0" cx="-199.3" cy="537.7" r="3.9"/>
	</g>
	<g>
		<circle class="st0" cx="-215.8" cy="537.7" r="4.2"/>
	</g>
	<g>
		<circle class="st0" cx="-232.4" cy="537.7" r="4.5"/>
	</g>
	<g>
		<circle class="st0" cx="-248.9" cy="537.7" r="4.8"/>
	</g>
	<g>
		<circle class="st0" cx="-265.4" cy="537.7" r="5.1"/>
	</g>
	<g>
		<circle class="st0" cx="139.4" cy="554.2" r="0"/>
	</g>
	<g>
		<circle class="st0" cx="122.9" cy="554.2" r="0.1"/>
	</g>
	<g>
		<circle class="st0" cx="106.4" cy="554.2" r="0.2"/>
	</g>
	<g>
		<path class="st0" d="M89.8,554.5c-0.2,0-0.3-0.1-0.3-0.3s0.1-0.3,0.3-0.3c0.1,0,0.3,0.1,0.3,0.3C90.1,554.3,90,554.5,89.8,554.5z"
			/>
	</g>
	<g>
		<circle class="st0" cx="73.3" cy="554.2" r="0.3"/>
	</g>
	<g>
		<circle class="st0" cx="56.8" cy="554.2" r="0.4"/>
	</g>
	<g>
		<path class="st0" d="M40.3,554.7c-0.3,0-0.5-0.2-0.5-0.5s0.2-0.5,0.5-0.5s0.5,0.2,0.5,0.5S40.5,554.7,40.3,554.7z"/>
	</g>
	<g>
		<circle class="st0" cx="23.7" cy="554.2" r="0.6"/>
	</g>
	<g>
		<circle class="st0" cx="7.2" cy="554.2" r="0.7"/>
	</g>
	<g>
		<circle class="st0" cx="-9.3" cy="554.2" r="0.9"/>
	</g>
	<g>
		<circle class="st0" cx="-25.8" cy="554.2" r="1.1"/>
	</g>
	<g>
		<path class="st0" d="M-42.3,555.4c-0.7,0-1.2-0.6-1.2-1.2c0-0.7,0.6-1.2,1.2-1.2c0.7,0,1.2,0.6,1.2,1.2
			C-41.1,554.9-41.7,555.4-42.3,555.4z"/>
	</g>
	<g>
		<circle class="st0" cx="-58.9" cy="554.2" r="1.4"/>
	</g>
	<g>
		<circle class="st0" cx="-75.4" cy="554.2" r="1.6"/>
	</g>
	<g>
		<circle class="st0" cx="-91.9" cy="554.2" r="1.9"/>
	</g>
	<g>
		<circle class="st0" cx="-108.4" cy="554.2" r="2.1"/>
	</g>
	<g>
		<circle class="st0" cx="-125" cy="554.2" r="2.3"/>
	</g>
	<g>
		<circle class="st0" cx="-141.5" cy="554.2" r="2.6"/>
	</g>
	<g>
		<circle class="st0" cx="-158" cy="554.2" r="2.9"/>
	</g>
	<g>
		<circle class="st0" cx="-174.5" cy="554.2" r="3.2"/>
	</g>
	<g>
		<circle class="st0" cx="-191.1" cy="554.2" r="3.5"/>
	</g>
	<g>
		<circle class="st0" cx="-207.6" cy="554.2" r="3.9"/>
	</g>
	<g>
		<path class="st0" d="M-224.1,558.4c-2.3,0-4.2-1.9-4.2-4.2s1.9-4.2,4.2-4.2c2.3,0,4.2,1.9,4.2,4.2S-221.8,558.4-224.1,558.4z"/>
	</g>
	<g>
		<circle class="st0" cx="-240.6" cy="554.2" r="4.5"/>
	</g>
	<g>
		<circle class="st0" cx="-257.1" cy="554.2" r="4.8"/>
	</g>
	<g>
		<circle class="st0" cx="-273.7" cy="554.2" r="5.1"/>
	</g>
	<g>
		<path class="st0" d="M147.7,570.8C147.6,570.8,147.6,570.7,147.7,570.8C147.6,570.7,147.6,570.7,147.7,570.8
			C147.7,570.7,147.7,570.7,147.7,570.8C147.7,570.7,147.7,570.8,147.7,570.8z"/>
	</g>
	<g>
		<path class="st0" d="M131.1,570.8L131.1,570.8c-0.1-0.1-0.1-0.2,0-0.2S131.2,570.7,131.1,570.8
			C131.2,570.8,131.2,570.8,131.1,570.8z"/>
	</g>
	<g>
		<circle class="st0" cx="114.6" cy="570.7" r="0.2"/>
	</g>
	<g>
		<circle class="st0" cx="98.1" cy="570.7" r="0.3"/>
	</g>
	<g>
		<path class="st0" d="M81.6,571c-0.2,0-0.3-0.1-0.3-0.3s0.1-0.3,0.3-0.3c0.2,0,0.3,0.1,0.3,0.3S81.8,571,81.6,571z"/>
	</g>
	<g>
		<circle class="st0" cx="65.1" cy="570.7" r="0.4"/>
	</g>
	<g>
		<circle class="st0" cx="48.5" cy="570.7" r="0.5"/>
	</g>
	<g>
		<circle class="st0" cx="32" cy="570.7" r="0.6"/>
	</g>
	<g>
		<circle class="st0" cx="15.5" cy="570.7" r="0.7"/>
	</g>
	<g>
		<path class="st0" d="M-1,571.6c-0.5,0-0.9-0.4-0.9-0.9s0.4-0.9,0.9-0.9s0.9,0.4,0.9,0.9S-0.5,571.6-1,571.6z"/>
	</g>
	<g>
		<circle class="st0" cx="-17.6" cy="570.7" r="1.1"/>
	</g>
	<g>
		<circle class="st0" cx="-34.1" cy="570.7" r="1.2"/>
	</g>
	<g>
		<circle class="st0" cx="-50.6" cy="570.7" r="1.4"/>
	</g>
	<g>
		<circle class="st0" cx="-67.1" cy="570.7" r="1.6"/>
	</g>
	<g>
		<circle class="st0" cx="-83.7" cy="570.7" r="1.9"/>
	</g>
	<g>
		<circle class="st0" cx="-100.2" cy="570.7" r="2.1"/>
	</g>
	<g>
		<circle class="st0" cx="-116.7" cy="570.7" r="2.3"/>
	</g>
	<g>
		<circle class="st0" cx="-133.2" cy="570.7" r="2.6"/>
	</g>
	<g>
		<circle class="st0" cx="-149.7" cy="570.7" r="2.9"/>
	</g>
	<g>
		<circle class="st0" cx="-166.3" cy="570.7" r="3.2"/>
	</g>
	<g>
		<circle class="st0" cx="-182.8" cy="570.7" r="3.5"/>
	</g>
	<g>
		<circle class="st0" cx="-199.3" cy="570.7" r="3.9"/>
	</g>
	<g>
		<circle class="st0" cx="-215.8" cy="570.7" r="4.2"/>
	</g>
	<g>
		<circle class="st0" cx="-232.4" cy="570.7" r="4.5"/>
	</g>
	<g>
		<circle class="st0" cx="-248.9" cy="570.7" r="4.8"/>
	</g>
	<g>
		<circle class="st0" cx="-265.4" cy="570.7" r="5.1"/>
	</g>
	<g>
		<circle class="st0" cx="139.4" cy="587.2" r="0"/>
	</g>
	<g>
		<circle class="st0" cx="122.9" cy="587.2" r="0.1"/>
	</g>
	<g>
		<circle class="st0" cx="106.4" cy="587.2" r="0.2"/>
	</g>
	<g>
		<path class="st0" d="M89.8,587.5c-0.2,0-0.3-0.1-0.3-0.3s0.1-0.3,0.3-0.3c0.1,0,0.3,0.1,0.3,0.3C90.1,587.4,90,587.5,89.8,587.5z"
			/>
	</g>
	<g>
		<circle class="st0" cx="73.3" cy="587.2" r="0.3"/>
	</g>
	<g>
		<circle class="st0" cx="56.8" cy="587.2" r="0.4"/>
	</g>
	<g>
		<path class="st0" d="M40.3,587.7c-0.3,0-0.5-0.2-0.5-0.5s0.2-0.5,0.5-0.5s0.5,0.2,0.5,0.5S40.5,587.7,40.3,587.7z"/>
	</g>
	<g>
		<circle class="st0" cx="23.7" cy="587.2" r="0.6"/>
	</g>
	<g>
		<circle class="st0" cx="7.2" cy="587.2" r="0.7"/>
	</g>
	<g>
		<circle class="st0" cx="-9.3" cy="587.2" r="0.9"/>
	</g>
	<g>
		<circle class="st0" cx="-25.8" cy="587.2" r="1.1"/>
	</g>
	<g>
		<path class="st0" d="M-42.3,588.5c-0.7,0-1.2-0.6-1.2-1.2c0-0.7,0.6-1.2,1.2-1.2c0.7,0,1.2,0.6,1.2,1.2
			C-41.1,587.9-41.7,588.5-42.3,588.5z"/>
	</g>
	<g>
		<circle class="st0" cx="-58.9" cy="587.2" r="1.4"/>
	</g>
	<g>
		<circle class="st0" cx="-75.4" cy="587.2" r="1.6"/>
	</g>
	<g>
		<circle class="st0" cx="-91.9" cy="587.2" r="1.9"/>
	</g>
	<g>
		<circle class="st0" cx="-108.4" cy="587.2" r="2.1"/>
	</g>
	<g>
		<circle class="st0" cx="-125" cy="587.2" r="2.3"/>
	</g>
	<g>
		<circle class="st0" cx="-141.5" cy="587.2" r="2.6"/>
	</g>
	<g>
		<circle class="st0" cx="-158" cy="587.2" r="2.9"/>
	</g>
	<g>
		<circle class="st0" cx="-174.5" cy="587.2" r="3.2"/>
	</g>
	<g>
		<circle class="st0" cx="-191.1" cy="587.2" r="3.5"/>
	</g>
	<g>
		<circle class="st0" cx="-207.6" cy="587.2" r="3.9"/>
	</g>
	<g>
		<path class="st0" d="M-224.1,591.5c-2.3,0-4.2-1.9-4.2-4.2c0-2.3,1.9-4.2,4.2-4.2c2.3,0,4.2,1.9,4.2,4.2
			C-219.9,589.6-221.8,591.5-224.1,591.5z"/>
	</g>
	<g>
		<circle class="st0" cx="-240.6" cy="587.2" r="4.5"/>
	</g>
	<g>
		<circle class="st0" cx="-257.1" cy="587.2" r="4.8"/>
	</g>
	<g>
		<circle class="st0" cx="-273.7" cy="587.2" r="5.1"/>
	</g>
	<g>
		<path class="st0" d="M147.7,603.8C147.6,603.8,147.6,603.8,147.7,603.8C147.6,603.7,147.6,603.7,147.7,603.8
			C147.7,603.7,147.7,603.7,147.7,603.8L147.7,603.8z"/>
	</g>
	<g>
		<path class="st0" d="M131.1,603.9C131.1,603.9,131.1,603.8,131.1,603.9c-0.1-0.1-0.1-0.2,0-0.2S131.2,603.7,131.1,603.9
			C131.2,603.8,131.2,603.9,131.1,603.9z"/>
	</g>
	<g>
		<circle class="st0" cx="114.6" cy="603.8" r="0.2"/>
	</g>
	<g>
		<circle class="st0" cx="98.1" cy="603.8" r="0.3"/>
	</g>
	<g>
		<path class="st0" d="M81.6,604.1c-0.2,0-0.3-0.1-0.3-0.3c0-0.2,0.1-0.3,0.3-0.3c0.2,0,0.3,0.1,0.3,0.3
			C81.9,603.9,81.8,604.1,81.6,604.1z"/>
	</g>
	<g>
		<circle class="st0" cx="65.1" cy="603.8" r="0.4"/>
	</g>
	<g>
		<circle class="st0" cx="48.5" cy="603.8" r="0.5"/>
	</g>
	<g>
		<circle class="st0" cx="32" cy="603.8" r="0.6"/>
	</g>
	<g>
		<circle class="st0" cx="15.5" cy="603.8" r="0.7"/>
	</g>
	<g>
		<path class="st0" d="M-1,604.7c-0.5,0-0.9-0.4-0.9-0.9s0.4-0.9,0.9-0.9s0.9,0.4,0.9,0.9S-0.5,604.7-1,604.7z"/>
	</g>
	<g>
		<circle class="st0" cx="-17.6" cy="603.8" r="1.1"/>
	</g>
	<g>
		<circle class="st0" cx="-34.1" cy="603.8" r="1.2"/>
	</g>
	<g>
		<circle class="st0" cx="-50.6" cy="603.8" r="1.4"/>
	</g>
	<g>
		<circle class="st0" cx="-67.1" cy="603.8" r="1.6"/>
	</g>
	<g>
		<circle class="st0" cx="-83.7" cy="603.8" r="1.9"/>
	</g>
	<g>
		<circle class="st0" cx="-100.2" cy="603.8" r="2.1"/>
	</g>
	<g>
		<circle class="st0" cx="-116.7" cy="603.8" r="2.3"/>
	</g>
	<g>
		<circle class="st0" cx="-133.2" cy="603.8" r="2.6"/>
	</g>
	<g>
		<circle class="st0" cx="-149.7" cy="603.8" r="2.9"/>
	</g>
	<g>
		<circle class="st0" cx="-166.3" cy="603.8" r="3.2"/>
	</g>
	<g>
		<circle class="st0" cx="-182.8" cy="603.8" r="3.5"/>
	</g>
	<g>
		<circle class="st0" cx="-199.3" cy="603.8" r="3.9"/>
	</g>
	<g>
		<circle class="st0" cx="-215.8" cy="603.8" r="4.2"/>
	</g>
	<g>
		<circle class="st0" cx="-232.4" cy="603.8" r="4.5"/>
	</g>
	<g>
		<circle class="st0" cx="-248.9" cy="603.8" r="4.8"/>
	</g>
	<g>
		<circle class="st0" cx="-265.4" cy="603.8" r="5.1"/>
	</g>
	<g>
		<circle class="st0" cx="139.4" cy="620.3" r="0"/>
	</g>
	<g>
		<circle class="st0" cx="122.9" cy="620.3" r="0.1"/>
	</g>
	<g>
		<circle class="st0" cx="106.4" cy="620.3" r="0.2"/>
	</g>
	<g>
		<path class="st0" d="M89.8,620.6c-0.2,0-0.3-0.1-0.3-0.3c0-0.2,0.1-0.3,0.3-0.3c0.1,0,0.3,0.1,0.3,0.3
			C90.1,620.4,90,620.6,89.8,620.6z"/>
	</g>
	<g>
		<circle class="st0" cx="73.3" cy="620.3" r="0.3"/>
	</g>
	<g>
		<circle class="st0" cx="56.8" cy="620.3" r="0.4"/>
	</g>
	<g>
		<path class="st0" d="M40.3,620.8c-0.3,0-0.5-0.2-0.5-0.5c0-0.3,0.2-0.5,0.5-0.5s0.5,0.2,0.5,0.5C40.8,620.6,40.5,620.8,40.3,620.8
			z"/>
	</g>
	<g>
		<circle class="st0" cx="23.7" cy="620.3" r="0.6"/>
	</g>
	<g>
		<circle class="st0" cx="7.2" cy="620.3" r="0.7"/>
	</g>
	<g>
		<circle class="st0" cx="-9.3" cy="620.3" r="0.9"/>
	</g>
	<g>
		<circle class="st0" cx="-25.8" cy="620.3" r="1.1"/>
	</g>
	<g>
		<path class="st0" d="M-42.3,621.5c-0.7,0-1.2-0.6-1.2-1.2c0-0.7,0.6-1.2,1.2-1.2c0.7,0,1.2,0.6,1.2,1.2
			C-41.1,621-41.7,621.5-42.3,621.5z"/>
	</g>
	<g>
		<circle class="st0" cx="-58.9" cy="620.3" r="1.4"/>
	</g>
	<g>
		<circle class="st0" cx="-75.4" cy="620.3" r="1.6"/>
	</g>
	<g>
		<circle class="st0" cx="-91.9" cy="620.3" r="1.9"/>
	</g>
	<g>
		<circle class="st0" cx="-108.4" cy="620.3" r="2.1"/>
	</g>
	<g>
		<circle class="st0" cx="-125" cy="620.3" r="2.3"/>
	</g>
	<g>
		<circle class="st0" cx="-141.5" cy="620.3" r="2.6"/>
	</g>
	<g>
		<circle class="st0" cx="-158" cy="620.3" r="2.9"/>
	</g>
	<g>
		<circle class="st0" cx="-174.5" cy="620.3" r="3.2"/>
	</g>
	<g>
		<circle class="st0" cx="-191.1" cy="620.3" r="3.5"/>
	</g>
	<g>
		<circle class="st0" cx="-207.6" cy="620.3" r="3.9"/>
	</g>
	<g>
		<path class="st0" d="M-224.1,624.5c-2.3,0-4.2-1.9-4.2-4.2c0-2.3,1.9-4.2,4.2-4.2c2.3,0,4.2,1.9,4.2,4.2
			C-219.9,622.6-221.8,624.5-224.1,624.5z"/>
	</g>
	<g>
		<circle class="st0" cx="-240.6" cy="620.3" r="4.5"/>
	</g>
	<g>
		<circle class="st0" cx="-257.1" cy="620.3" r="4.8"/>
	</g>
	<g>
		<circle class="st0" cx="-273.7" cy="620.3" r="5.1"/>
	</g>
	<g>
		<path class="st0" d="M147.7,636.9C147.6,636.9,147.6,636.8,147.7,636.9C147.6,636.8,147.6,636.8,147.7,636.9
			C147.7,636.8,147.7,636.8,147.7,636.9C147.7,636.8,147.7,636.9,147.7,636.9z"/>
	</g>
	<g>
		<path class="st0" d="M131.1,636.9L131.1,636.9c-0.1-0.1-0.1-0.2,0-0.2S131.2,636.8,131.1,636.9
			C131.2,636.9,131.2,636.9,131.1,636.9z"/>
	</g>
	<g>
		<circle class="st0" cx="114.6" cy="636.8" r="0.2"/>
	</g>
	<g>
		<circle class="st0" cx="98.1" cy="636.8" r="0.3"/>
	</g>
	<g>
		<path class="st0" d="M81.6,637.1c-0.2,0-0.3-0.1-0.3-0.3c0-0.2,0.1-0.3,0.3-0.3c0.2,0,0.3,0.1,0.3,0.3
			C81.9,637,81.8,637.1,81.6,637.1z"/>
	</g>
	<g>
		<circle class="st0" cx="65.1" cy="636.8" r="0.4"/>
	</g>
	<g>
		<circle class="st0" cx="48.5" cy="636.8" r="0.5"/>
	</g>
	<g>
		<circle class="st0" cx="32" cy="636.8" r="0.6"/>
	</g>
	<g>
		<circle class="st0" cx="15.5" cy="636.8" r="0.7"/>
	</g>
	<g>
		<path class="st0" d="M-1,637.7c-0.5,0-0.9-0.4-0.9-0.9s0.4-0.9,0.9-0.9s0.9,0.4,0.9,0.9S-0.5,637.7-1,637.7z"/>
	</g>
	<g>
		<circle class="st0" cx="-17.6" cy="636.8" r="1.1"/>
	</g>
	<g>
		<circle class="st0" cx="-34.1" cy="636.8" r="1.2"/>
	</g>
	<g>
		<circle class="st0" cx="-50.6" cy="636.8" r="1.4"/>
	</g>
	<g>
		<circle class="st0" cx="-67.1" cy="636.8" r="1.6"/>
	</g>
	<g>
		<circle class="st0" cx="-83.7" cy="636.8" r="1.9"/>
	</g>
	<g>
		<circle class="st0" cx="-100.2" cy="636.8" r="2.1"/>
	</g>
	<g>
		<circle class="st0" cx="-116.7" cy="636.8" r="2.3"/>
	</g>
	<g>
		<circle class="st0" cx="-133.2" cy="636.8" r="2.6"/>
	</g>
	<g>
		<circle class="st0" cx="-149.7" cy="636.8" r="2.9"/>
	</g>
	<g>
		<circle class="st0" cx="-166.3" cy="636.8" r="3.2"/>
	</g>
	<g>
		<circle class="st0" cx="-182.8" cy="636.8" r="3.5"/>
	</g>
	<g>
		<circle class="st0" cx="-199.3" cy="636.8" r="3.9"/>
	</g>
	<g>
		<circle class="st0" cx="-215.8" cy="636.8" r="4.2"/>
	</g>
	<g>
		<circle class="st0" cx="-232.4" cy="636.8" r="4.5"/>
	</g>
	<g>
		<circle class="st0" cx="-248.9" cy="636.8" r="4.8"/>
	</g>
	<g>
		<circle class="st0" cx="-265.4" cy="636.8" r="5.1"/>
	</g>
	<g>
		<circle class="st0" cx="139.4" cy="653.3" r="0"/>
	</g>
	<g>
		<circle class="st0" cx="122.9" cy="653.3" r="0.1"/>
	</g>
	<g>
		<circle class="st0" cx="106.4" cy="653.3" r="0.2"/>
	</g>
	<g>
		<path class="st0" d="M89.8,653.6c-0.2,0-0.3-0.1-0.3-0.3c0-0.2,0.1-0.3,0.3-0.3c0.1,0,0.3,0.1,0.3,0.3
			C90.1,653.5,90,653.6,89.8,653.6z"/>
	</g>
	<g>
		<circle class="st0" cx="73.3" cy="653.3" r="0.3"/>
	</g>
	<g>
		<circle class="st0" cx="56.8" cy="653.3" r="0.4"/>
	</g>
	<g>
		<path class="st0" d="M40.3,653.8c-0.3,0-0.5-0.2-0.5-0.5c0-0.3,0.2-0.5,0.5-0.5s0.5,0.2,0.5,0.5C40.8,653.6,40.5,653.8,40.3,653.8
			z"/>
	</g>
	<g>
		<circle class="st0" cx="23.7" cy="653.3" r="0.6"/>
	</g>
	<g>
		<circle class="st0" cx="7.2" cy="653.3" r="0.7"/>
	</g>
	<g>
		<circle class="st0" cx="-9.3" cy="653.3" r="0.9"/>
	</g>
	<g>
		<circle class="st0" cx="-25.8" cy="653.3" r="1.1"/>
	</g>
	<g>
		<path class="st0" d="M-42.3,654.6c-0.7,0-1.2-0.6-1.2-1.2c0-0.7,0.6-1.2,1.2-1.2c0.7,0,1.2,0.6,1.2,1.2S-41.7,654.6-42.3,654.6z"
			/>
	</g>
	<g>
		<circle class="st0" cx="-58.9" cy="653.3" r="1.4"/>
	</g>
	<g>
		<circle class="st0" cx="-75.4" cy="653.3" r="1.6"/>
	</g>
	<g>
		<circle class="st0" cx="-91.9" cy="653.3" r="1.9"/>
	</g>
	<g>
		<circle class="st0" cx="-108.4" cy="653.3" r="2.1"/>
	</g>
	<g>
		<circle class="st0" cx="-125" cy="653.3" r="2.3"/>
	</g>
	<g>
		<circle class="st0" cx="-141.5" cy="653.3" r="2.6"/>
	</g>
	<g>
		<circle class="st0" cx="-158" cy="653.3" r="2.9"/>
	</g>
	<g>
		<circle class="st0" cx="-174.5" cy="653.3" r="3.2"/>
	</g>
	<g>
		<circle class="st0" cx="-191.1" cy="653.3" r="3.5"/>
	</g>
	<g>
		<circle class="st0" cx="-207.6" cy="653.3" r="3.9"/>
	</g>
	<g>
		<path class="st0" d="M-224.1,657.5c-2.3,0-4.2-1.9-4.2-4.2c0-2.3,1.9-4.2,4.2-4.2c2.3,0,4.2,1.9,4.2,4.2
			C-219.9,655.7-221.8,657.5-224.1,657.5z"/>
	</g>
	<g>
		<circle class="st0" cx="-240.6" cy="653.3" r="4.5"/>
	</g>
	<g>
		<circle class="st0" cx="-257.1" cy="653.3" r="4.8"/>
	</g>
	<g>
		<circle class="st0" cx="-273.7" cy="653.3" r="5.1"/>
	</g>
	<g>
		<path class="st0" d="M147.7,669.9C147.6,669.9,147.6,669.9,147.7,669.9C147.6,669.8,147.6,669.8,147.7,669.9
			C147.7,669.8,147.7,669.8,147.7,669.9L147.7,669.9z"/>
	</g>
	<g>
		<path class="st0" d="M131.1,669.9L131.1,669.9c-0.1-0.1-0.1-0.2,0-0.2C131.2,669.8,131.2,669.8,131.1,669.9
			C131.2,669.9,131.2,669.9,131.1,669.9z"/>
	</g>
	<g>
		<circle class="st0" cx="114.6" cy="669.9" r="0.2"/>
	</g>
	<g>
		<circle class="st0" cx="98.1" cy="669.9" r="0.3"/>
	</g>
	<g>
		<path class="st0" d="M81.6,670.2c-0.2,0-0.3-0.1-0.3-0.3c0-0.2,0.1-0.3,0.3-0.3c0.2,0,0.3,0.1,0.3,0.3
			C81.9,670,81.8,670.2,81.6,670.2z"/>
	</g>
	<g>
		<circle class="st0" cx="65.1" cy="669.9" r="0.4"/>
	</g>
	<g>
		<circle class="st0" cx="48.5" cy="669.9" r="0.5"/>
	</g>
	<g>
		<circle class="st0" cx="32" cy="669.9" r="0.6"/>
	</g>
	<g>
		<circle class="st0" cx="15.5" cy="669.9" r="0.7"/>
	</g>
	<g>
		<circle class="st0" cx="-1" cy="669.9" r="0.9"/>
	</g>
	<g>
		<circle class="st0" cx="-17.6" cy="669.9" r="1.1"/>
	</g>
	<g>
		<circle class="st0" cx="-34.1" cy="669.9" r="1.2"/>
	</g>
	<g>
		<circle class="st0" cx="-50.6" cy="669.9" r="1.4"/>
	</g>
	<g>
		<circle class="st0" cx="-67.1" cy="669.9" r="1.6"/>
	</g>
	<g>
		<circle class="st0" cx="-83.7" cy="669.9" r="1.9"/>
	</g>
	<g>
		<circle class="st0" cx="-100.2" cy="669.9" r="2.1"/>
	</g>
	<g>
		<circle class="st0" cx="-116.7" cy="669.9" r="2.3"/>
	</g>
	<g>
		<circle class="st0" cx="-133.2" cy="669.9" r="2.6"/>
	</g>
	<g>
		<circle class="st0" cx="-149.7" cy="669.9" r="2.9"/>
	</g>
	<g>
		<circle class="st0" cx="-166.3" cy="669.9" r="3.2"/>
	</g>
	<g>
		<circle class="st0" cx="-182.8" cy="669.9" r="3.5"/>
	</g>
	<g>
		<circle class="st0" cx="-199.3" cy="669.9" r="3.9"/>
	</g>
	<g>
		<circle class="st0" cx="-215.8" cy="669.9" r="4.2"/>
	</g>
	<g>
		<circle class="st0" cx="-232.4" cy="669.9" r="4.5"/>
	</g>
	<g>
		<circle class="st0" cx="-248.9" cy="669.9" r="4.8"/>
	</g>
	<g>
		<circle class="st0" cx="-265.4" cy="669.9" r="5.1"/>
	</g>
	<g>
		<circle class="st0" cx="139.4" cy="686.4" r="0"/>
	</g>
	<g>
		<circle class="st0" cx="122.9" cy="686.4" r="0.1"/>
	</g>
	<g>
		<circle class="st0" cx="106.4" cy="686.4" r="0.2"/>
	</g>
	<g>
		<path class="st0" d="M89.8,686.7c-0.2,0-0.3-0.1-0.3-0.3c0-0.2,0.1-0.3,0.3-0.3c0.1,0,0.3,0.1,0.3,0.3
			C90.1,686.6,90,686.7,89.8,686.7z"/>
	</g>
	<g>
		<circle class="st0" cx="73.3" cy="686.4" r="0.3"/>
	</g>
	<g>
		<circle class="st0" cx="56.8" cy="686.4" r="0.4"/>
	</g>
	<g>
		<path class="st0" d="M40.3,686.9c-0.3,0-0.5-0.2-0.5-0.5c0-0.3,0.2-0.5,0.5-0.5s0.5,0.2,0.5,0.5C40.8,686.7,40.5,686.9,40.3,686.9
			z"/>
	</g>
	<g>
		<circle class="st0" cx="23.7" cy="686.4" r="0.6"/>
	</g>
	<g>
		<circle class="st0" cx="7.2" cy="686.4" r="0.7"/>
	</g>
	<g>
		<circle class="st0" cx="-9.3" cy="686.4" r="0.9"/>
	</g>
	<g>
		<circle class="st0" cx="-25.8" cy="686.4" r="1.1"/>
	</g>
	<g>
		<path class="st0" d="M-42.3,687.6c-0.7,0-1.2-0.6-1.2-1.2c0-0.7,0.6-1.2,1.2-1.2c0.7,0,1.2,0.6,1.2,1.2
			C-41.1,687.1-41.7,687.6-42.3,687.6z"/>
	</g>
	<g>
		<circle class="st0" cx="-58.9" cy="686.4" r="1.4"/>
	</g>
	<g>
		<circle class="st0" cx="-75.4" cy="686.4" r="1.6"/>
	</g>
	<g>
		<circle class="st0" cx="-91.9" cy="686.4" r="1.9"/>
	</g>
	<g>
		<circle class="st0" cx="-108.4" cy="686.4" r="2.1"/>
	</g>
	<g>
		<circle class="st0" cx="-125" cy="686.4" r="2.3"/>
	</g>
	<g>
		<circle class="st0" cx="-141.5" cy="686.4" r="2.6"/>
	</g>
	<g>
		<circle class="st0" cx="-158" cy="686.4" r="2.9"/>
	</g>
	<g>
		<circle class="st0" cx="-174.5" cy="686.4" r="3.2"/>
	</g>
	<g>
		<circle class="st0" cx="-191.1" cy="686.4" r="3.5"/>
	</g>
	<g>
		<circle class="st0" cx="-207.6" cy="686.4" r="3.9"/>
	</g>
	<g>
		<path class="st0" d="M-224.1,690.6c-2.3,0-4.2-1.9-4.2-4.2s1.9-4.2,4.2-4.2c2.3,0,4.2,1.9,4.2,4.2S-221.8,690.6-224.1,690.6z"/>
	</g>
	<g>
		<circle class="st0" cx="-240.6" cy="686.4" r="4.5"/>
	</g>
	<g>
		<circle class="st0" cx="-257.1" cy="686.4" r="4.8"/>
	</g>
	<g>
		<circle class="st0" cx="-273.7" cy="686.4" r="5.1"/>
	</g>
	<g>
		<path class="st0" d="M147.7,702.9C147.6,702.9,147.6,702.9,147.7,702.9C147.6,702.9,147.6,702.9,147.7,702.9L147.7,702.9
			L147.7,702.9z"/>
	</g>
	<g>
		<path class="st0" d="M131.1,703L131.1,703c-0.1-0.1-0.1-0.2,0-0.2S131.2,702.8,131.1,703C131.2,703,131.2,703,131.1,703z"/>
	</g>
	<g>
		<circle class="st0" cx="114.6" cy="702.9" r="0.2"/>
	</g>
	<g>
		<circle class="st0" cx="98.1" cy="702.9" r="0.3"/>
	</g>
	<g>
		<path class="st0" d="M81.6,703.2c-0.2,0-0.3-0.1-0.3-0.3c0-0.2,0.1-0.3,0.3-0.3c0.2,0,0.3,0.1,0.3,0.3S81.8,703.2,81.6,703.2z"/>
	</g>
	<g>
		<circle class="st0" cx="65.1" cy="702.9" r="0.4"/>
	</g>
	<g>
		<circle class="st0" cx="48.5" cy="702.9" r="0.5"/>
	</g>
	<g>
		<circle class="st0" cx="32" cy="702.9" r="0.6"/>
	</g>
	<g>
		<circle class="st0" cx="15.5" cy="702.9" r="0.7"/>
	</g>
	<g>
		<path class="st0" d="M-1,703.8c-0.5,0-0.9-0.4-0.9-0.9S-1.5,702-1,702s0.9,0.4,0.9,0.9S-0.5,703.8-1,703.8z"/>
	</g>
	<g>
		<circle class="st0" cx="-17.6" cy="702.9" r="1.1"/>
	</g>
	<g>
		<circle class="st0" cx="-34.1" cy="702.9" r="1.2"/>
	</g>
	<g>
		<circle class="st0" cx="-50.6" cy="702.9" r="1.4"/>
	</g>
	<g>
		<circle class="st0" cx="-67.1" cy="702.9" r="1.6"/>
	</g>
	<g>
		<circle class="st0" cx="-83.7" cy="702.9" r="1.9"/>
	</g>
	<g>
		<circle class="st0" cx="-100.2" cy="702.9" r="2.1"/>
	</g>
	<g>
		<circle class="st0" cx="-116.7" cy="702.9" r="2.3"/>
	</g>
	<g>
		<circle class="st0" cx="-133.2" cy="702.9" r="2.6"/>
	</g>
	<g>
		<circle class="st0" cx="-149.7" cy="702.9" r="2.9"/>
	</g>
	<g>
		<circle class="st0" cx="-166.3" cy="702.9" r="3.2"/>
	</g>
	<g>
		<circle class="st0" cx="-182.8" cy="702.9" r="3.5"/>
	</g>
	<g>
		<circle class="st0" cx="-199.3" cy="702.9" r="3.9"/>
	</g>
	<g>
		<circle class="st0" cx="-215.8" cy="702.9" r="4.2"/>
	</g>
	<g>
		<circle class="st0" cx="-232.4" cy="702.9" r="4.5"/>
	</g>
	<g>
		<circle class="st0" cx="-248.9" cy="702.9" r="4.8"/>
	</g>
	<g>
		<circle class="st0" cx="-265.4" cy="702.9" r="5.1"/>
	</g>
	<g>
		<circle class="st0" cx="139.4" cy="719.4" r="0"/>
	</g>
	<g>
		<circle class="st0" cx="122.9" cy="719.4" r="0.1"/>
	</g>
	<g>
		<circle class="st0" cx="106.4" cy="719.4" r="0.2"/>
	</g>
	<g>
		<path class="st0" d="M89.8,719.7c-0.2,0-0.3-0.1-0.3-0.3s0.1-0.3,0.3-0.3c0.1,0,0.3,0.1,0.3,0.3C90.1,719.6,90,719.7,89.8,719.7z"
			/>
	</g>
	<g>
		<circle class="st0" cx="73.3" cy="719.4" r="0.3"/>
	</g>
	<g>
		<circle class="st0" cx="56.8" cy="719.4" r="0.4"/>
	</g>
	<g>
		<path class="st0" d="M40.3,719.9c-0.3,0-0.5-0.2-0.5-0.5s0.2-0.5,0.5-0.5s0.5,0.2,0.5,0.5S40.5,719.9,40.3,719.9z"/>
	</g>
	<g>
		<circle class="st0" cx="23.7" cy="719.4" r="0.6"/>
	</g>
	<g>
		<circle class="st0" cx="7.2" cy="719.4" r="0.7"/>
	</g>
	<g>
		<circle class="st0" cx="-9.3" cy="719.4" r="0.9"/>
	</g>
	<g>
		<circle class="st0" cx="-25.8" cy="719.4" r="1.1"/>
	</g>
	<g>
		<path class="st0" d="M-42.3,720.7c-0.7,0-1.2-0.6-1.2-1.2c0-0.6,0.6-1.2,1.2-1.2c0.7,0,1.2,0.6,1.2,1.2
			C-41.1,720.1-41.7,720.7-42.3,720.7z"/>
	</g>
	<g>
		<circle class="st0" cx="-58.9" cy="719.4" r="1.4"/>
	</g>
	<g>
		<circle class="st0" cx="-75.4" cy="719.4" r="1.6"/>
	</g>
	<g>
		<circle class="st0" cx="-91.9" cy="719.4" r="1.9"/>
	</g>
	<g>
		<circle class="st0" cx="-108.4" cy="719.4" r="2.1"/>
	</g>
	<g>
		<circle class="st0" cx="-125" cy="719.4" r="2.3"/>
	</g>
	<g>
		<circle class="st0" cx="-141.5" cy="719.4" r="2.6"/>
	</g>
	<g>
		<circle class="st0" cx="-158" cy="719.4" r="2.9"/>
	</g>
	<g>
		<circle class="st0" cx="-174.5" cy="719.4" r="3.2"/>
	</g>
	<g>
		<circle class="st0" cx="-191.1" cy="719.4" r="3.5"/>
	</g>
	<g>
		<circle class="st0" cx="-207.6" cy="719.4" r="3.9"/>
	</g>
	<g>
		<path class="st0" d="M-224.1,723.6c-2.3,0-4.2-1.9-4.2-4.2c0-2.3,1.9-4.2,4.2-4.2c2.3,0,4.2,1.9,4.2,4.2
			C-219.9,721.7-221.8,723.6-224.1,723.6z"/>
	</g>
	<g>
		<circle class="st0" cx="-240.6" cy="719.4" r="4.5"/>
	</g>
	<g>
		<circle class="st0" cx="-257.1" cy="719.4" r="4.8"/>
	</g>
	<g>
		<circle class="st0" cx="-273.7" cy="719.4" r="5.1"/>
	</g>
	<g>
		<path class="st0" d="M147.7,736C147.6,736,147.6,736,147.7,736C147.6,735.9,147.6,735.9,147.7,736
			C147.7,735.9,147.7,735.9,147.7,736L147.7,736z"/>
	</g>
	<g>
		<path class="st0" d="M131.1,736L131.1,736c-0.1-0.1-0.1-0.2,0-0.2C131.2,735.9,131.2,735.9,131.1,736
			C131.2,736,131.2,736,131.1,736z"/>
	</g>
	<g>
		<circle class="st0" cx="114.6" cy="735.9" r="0.2"/>
	</g>
	<g>
		<circle class="st0" cx="98.1" cy="735.9" r="0.3"/>
	</g>
	<g>
		<path class="st0" d="M81.6,736.3c-0.2,0-0.3-0.1-0.3-0.3s0.1-0.3,0.3-0.3c0.2,0,0.3,0.1,0.3,0.3C81.9,736.1,81.8,736.3,81.6,736.3
			z"/>
	</g>
	<g>
		<circle class="st0" cx="65.1" cy="735.9" r="0.4"/>
	</g>
	<g>
		<circle class="st0" cx="48.5" cy="735.9" r="0.5"/>
	</g>
	<g>
		<circle class="st0" cx="32" cy="735.9" r="0.6"/>
	</g>
	<g>
		<circle class="st0" cx="15.5" cy="735.9" r="0.7"/>
	</g>
	<g>
		<path class="st0" d="M-1,736.9c-0.5,0-0.9-0.4-0.9-0.9s0.4-0.9,0.9-0.9s0.9,0.4,0.9,0.9S-0.5,736.9-1,736.9z"/>
	</g>
	<g>
		<circle class="st0" cx="-17.6" cy="735.9" r="1.1"/>
	</g>
	<g>
		<circle class="st0" cx="-34.1" cy="735.9" r="1.2"/>
	</g>
	<g>
		<circle class="st0" cx="-50.6" cy="735.9" r="1.4"/>
	</g>
	<g>
		<circle class="st0" cx="-67.1" cy="735.9" r="1.6"/>
	</g>
	<g>
		<circle class="st0" cx="-83.7" cy="735.9" r="1.9"/>
	</g>
	<g>
		<circle class="st0" cx="-100.2" cy="735.9" r="2.1"/>
	</g>
	<g>
		<circle class="st0" cx="-116.7" cy="735.9" r="2.3"/>
	</g>
	<g>
		<circle class="st0" cx="-133.2" cy="735.9" r="2.6"/>
	</g>
	<g>
		<circle class="st0" cx="-149.7" cy="735.9" r="2.9"/>
	</g>
	<g>
		<circle class="st0" cx="-166.3" cy="735.9" r="3.2"/>
	</g>
	<g>
		<circle class="st0" cx="-182.8" cy="735.9" r="3.5"/>
	</g>
	<g>
		<circle class="st0" cx="-199.3" cy="735.9" r="3.9"/>
	</g>
	<g>
		<circle class="st0" cx="-215.8" cy="735.9" r="4.2"/>
	</g>
	<g>
		<circle class="st0" cx="-232.4" cy="735.9" r="4.5"/>
	</g>
	<g>
		<circle class="st0" cx="-248.9" cy="735.9" r="4.8"/>
	</g>
	<g>
		<circle class="st0" cx="-265.4" cy="735.9" r="5.1"/>
	</g>
</g>
</svg>
